<svg xmlns="http://www.w3.org/2000/svg" width="40" height="40" viewBox="0 0 40 40">
<path fill="url(#linear_color)" d="M20.6,5l7.3,7.3l-17,17L3.5,22L20.6,5z M30.1,2.9c2,2,2,5.3,0,7.3c0,0,0,0,0,0L29.2,11l-7.3-7.3l0.9-0.9
	C24.8,0.9,28.1,0.9,30.1,2.9L30.1,2.9z M1.3,29.8l1-6.5l7.3,7.4L3,31.6c-0.8,0.1-1.5-0.4-1.7-1.2C1.3,30.2,1.3,30,1.3,29.8z"/>
<path fill="url(#linear_color)" d="M3.1,35.2h33.8c1.2,0,1.8,0.6,1.8,1.8v0c0,1.2-0.6,1.8-1.8,1.8H3.1c-1.2,0-1.8-0.6-1.8-1.8v0
	C1.3,35.8,1.9,35.2,3.1,35.2z"/>
<path fill="url(#linear_color)" d="M19.1,28h17.8c1.2,0,1.8,0.6,1.8,1.8v0c0,1.2-0.6,1.8-1.8,1.8H19.1c-1.2,0-1.8-0.6-1.8-1.8v0
	C17.3,28.6,17.9,28,19.1,28z"/>
	<defs>
        <linearGradient id="linear_color" x1="3.05378" y1="3.05378" x2="33.7416" y2="33.7416"
						gradientUnits="userSpaceOnUse">
            <stop offset="0.17" stop-color="#07C3F2"/>
			<stop offset="0.9699" stop-color="#087CFA"/>
        </linearGradient>
    </defs>
</svg>
