<svg xmlns="http://www.w3.org/2000/svg" width="16" height="16" viewBox="0 0 16 16">
<path fill="#6E6E6E" d="M8,14.8c-0.2,0-0.4-0.1-0.5-0.2L1.5,8.6c-0.3-0.3-0.3-0.7,0-1l3.4-3.4c0.3-0.3,0.7-0.3,1,0l5.9,5.9
	c0.3,0.3,0.3,0.7,0,1l-3.4,3.4C8.3,14.7,8.1,14.8,8,14.8z M3,8.1l5,5l2.4-2.4l-5-5L3,8.1z"/>
<path fill="#6E6E6E" d="M12.2,12.2c-0.2,0-0.4-0.1-0.5-0.2L4.1,4.4c-0.3-0.3-0.3-0.7,0-1l1.8-1.8c0.3-0.3,0.7-0.3,1,0l2.3,2.3L11,2
	c0.4-0.4,1-0.6,1.5-0.6c0.6,0,1.1,0.2,1.5,0.6c0.9,0.9,0.9,2.2,0,3.1L12.2,7l2.2,2.2c0.3,0.3,0.3,0.7,0,1L12.6,12
	C12.5,12.1,12.3,12.2,12.2,12.2z M5.5,3.9l6.6,6.6L13,9.7l-2.2-2.2c-0.1-0.1-0.2-0.3-0.2-0.5s0.1-0.4,0.2-0.5l2.4-2.4
	c0.3-0.3,0.3-0.8,0-1.1c-0.3-0.3-0.8-0.3-1.1,0L9.6,5.4c-0.3,0.3-0.7,0.3-1,0L6.3,3.1L5.5,3.9z M4,10.9c-0.2,0-0.4-0.1-0.5-0.2
	c-0.3-0.3-0.3-0.7,0-1l1.3-1.3c0.3-0.3,0.7-0.3,1,0c0.3,0.3,0.3,0.7,0,1l-1.3,1.3C4.4,10.8,4.2,10.9,4,10.9z M6,12.8
	c-0.2,0-0.4-0.1-0.5-0.2c-0.3-0.3-0.3-0.7,0-1l1.3-1.3c0.3-0.3,0.7-0.3,1,0c0.3,0.3,0.3,0.7,0,1l-1.3,1.3C6.3,12.7,6.2,12.8,6,12.8z
	"/>
</svg>