<svg xmlns="http://www.w3.org/2000/svg" viewBox="0 0 16 16" width="16" height="16">
	<path fill="#AFB1B3" d="M15,6.7c-1,1.2-3.7,2-6.7,2c-0.1,0-0.1,0-0.2,0c-0.1,0-0.1,0-0.2,0c-3.1,0-5.7-0.8-6.7-2c0,0,0,0,0,0V9
	C2,10.2,4.7,11,7.8,11c0.1,0,0.1,0,0.2,0c0.1,0,0.1,0,0.2,0C11.3,11,14,10.2,15,9L15,6.7C15,6.8,15,6.8,15,6.7z M8.2,0.4
	c-0.1,0-0.1,0-0.2,0c-0.1,0-0.1,0-0.2,0C4.7,0.4,2,1.2,1,2.5v2.2c0,0,0,0,0,0c1,1.2,3.7,2,6.7,2c0.1,0,0.1,0,0.2,0
	c0.1,0,0.1,0,0.2,0c3.1,0,5.7-0.8,6.7-2c0,0,0,0,0,0V2.5C14,1.2,11.3,0.4,8.2,0.4z M15,11c-1,1.2-3.7,2-6.7,2c-0.1,0-0.1,0-0.2,0
	c-0.1,0-0.1,0-0.2,0c-3.1,0-5.7-0.8-6.7-2c0,0,0,0,0,0v2.2c1,1.2,3.7,2.1,6.8,2.1c0.1,0,0.1,0,0.2,0c0.1,0,0.1,0,0.2,0
	c3.1,0,5.8-0.9,6.8-2.1L15,11C15,11.1,15,11.1,15,11z"/>
</svg>
