<svg xmlns="http://www.w3.org/2000/svg" viewBox="0 0 16 16" width="16" height="16">
<path fill="#1296DB" d="M2.8,2.4h0.4c0,1.1,0.9,2,2,2l0,0h5.6c1.1,0,2-0.9,2-2v0h0.4c0.9,0,1.6,0.7,1.6,1.6v9.5
	c0,0.9-0.7,1.6-1.6,1.6H2.8c-0.9,0-1.6-0.7-1.6-1.6V4C1.3,3.1,2,2.4,2.8,2.4z"/>
<path fill="#FFFFFF" d="M4.4,6C4.2,6,4,6.1,4,6.4c0,0.2,0.2,0.4,0.4,0.4c0,0,0,0,0,0h6.8c0.2,0,0.4-0.2,0.4-0.4
	c0-0.2-0.2-0.4-0.4-0.4c0,0,0,0,0,0H4.4z"/>
<path fill="#FFFFFF" d="M4.4,8.8C4.2,8.8,4,8.9,4,9.2c0,0.2,0.2,0.4,0.4,0.4h6.8c0.2,0,0.4-0.2,0.4-0.4c0-0.2-0.2-0.4-0.4-0.4H4.4z"
	/>
<path fill="#FFFFFF" d="M4.4,11.5c-0.2,0-0.4,0.2-0.4,0.4c0,0.2,0.2,0.4,0.4,0.4c0,0,0,0,0,0h4.4c0.2,0,0.4-0.2,0.4-0.4
	c0-0.2-0.2-0.4-0.4-0.4c0,0,0,0,0,0H4.4z"/>
<path fill="#1296DB" d="M5.2,1.2h5.6c0.7,0,1.2,0.5,1.2,1.2s-0.5,1.2-1.2,1.2H5.2C4.6,3.6,4,3.1,4,2.4S4.6,1.2,5.2,1.2z"/>
</svg>
