<svg xmlns="http://www.w3.org/2000/svg" viewBox="0 0 32 32" width="32" height="32">
    <path fill="#EAEAEA"
          d="M6.3,0.5c-1.4,0-2.5,1.1-2.5,2.4V29c0,1.4,1.1,2.5,2.5,2.5h22.1c1.4,0,2.5-1.1,2.5-2.5V10.3l-9.1-9.8H6.3z"
    />
    <path fill="#434854" d="M21.7,0.5v7.7c0,1.1,0.8,1.9,1.9,1.9H31L21.7,0.5z"/>
    <path opacity="0.1" d="M23.1,10.2l7.7,7.7v-7.7H23.1z"/>
    <path fill="#EA8BB6"
          d="M22.3,25.6c0,0.5-0.4,1-1,1H2c-0.5,0-1-0.4-1-1V14.9c0-0.5,0.4-1,1-1h19.4c0.5,0,1,0.4,1,1V25.6z"/>
    <path fill="#FFFFFF" d="M9.7,20.8H7.3c-0.3,0-0.5,0.2-0.5,0.5s0.2,0.5,0.5,0.5h1.5c0,0.5-0.4,1-1,1h-1c-0.5,0-1-0.4-1-1v-2.9
	c0-0.5,0.4-1,1-1h1c0.5,0,1,0.4,1,1c0,0.3,0.2,0.5,0.5,0.5c0.3,0,0.5-0.2,0.5-0.5c0-1.1-0.9-1.9-1.9-1.9h-1c-1.1,0-1.9,0.9-1.9,1.9
	v2.9c0,1.1,0.9,1.9,1.9,1.9h1c1.1,0,1.9-0.9,1.9-1.9c0.3,0,0.5-0.2,0.5-0.5S10,20.8,9.7,20.8z M12.6,23.2c0,0.3-0.2,0.5-0.5,0.5
	c-0.3,0-0.5-0.2-0.5-0.5v-5.8c0-0.3,0.2-0.5,0.5-0.5c0.3,0,0.5,0.2,0.5,0.5V23.2z M17.9,16.9H15c-0.3,0-0.5,0.2-0.5,0.5v5.8
	c0,0.3,0.2,0.5,0.5,0.5c0.3,0,0.5-0.2,0.5-0.5v-2.4H17c0.3,0,0.5-0.2,0.5-0.5c0-0.3-0.2-0.5-0.5-0.5h-1.5v-1.9h2.4
	c0.3,0,0.5-0.2,0.5-0.5S18.2,16.9,17.9,16.9z"/>
</svg>
