<svg xmlns="http://www.w3.org/2000/svg" viewBox="0 0 16 16" width="16" height="16">
    <path fill="#6e6e6e" d="M12.8,3.1c-0.2-0.2-0.4-0.2-0.6,0c0,0,0,0,0,0l-1.4,1.4C9.9,4.2,9,4,8,4C3.4,4,0.7,7.5,0.7,8
	c0,0.4,1.3,2.1,3.5,3.1L3,12.3c-0.2,0.2-0.2,0.4,0,0.6c0.2,0.2,0.4,0.2,0.6,0c0,0,0,0,0,0l9.2-9.2C12.9,3.5,12.9,3.3,12.8,3.1
	C12.8,3.1,12.8,3.1,12.8,3.1L12.8,3.1z M5.3,8c0-1.5,1.2-2.7,2.7-2.7c0.5,0,1.1,0.2,1.5,0.5L9,6.3C8.7,6.1,8.4,6,8,6
	C6.9,6,6,6.9,6,8c0,0.4,0.1,0.7,0.3,1L5.8,9.5C5.5,9.1,5.3,8.5,5.3,8z M12.4,5.2l-1.9,1.9c0.1,0.3,0.2,0.6,0.2,0.9
	c0,1.5-1.2,2.7-2.7,2.7c-0.3,0-0.6-0.1-0.9-0.2l-1.2,1.2C6.5,11.9,7.3,12,8,12c4.6,0,7.3-3.5,7.3-4C15.3,7.7,14.3,6.2,12.4,5.2z"/>
<path fill="#6e6e6e" d="M8,10c1.1,0,2-0.9,2-2c0-0.1,0-0.3,0-0.4L7.6,10C7.7,10,7.9,10,8,10z"/>
</svg>
