<svg xmlns="http://www.w3.org/2000/svg" viewBox="0 0 16 16" width="16" height="16">
<rect x="0.7" y="1.8" fill="#8C7BFD" width="14.8" height="12.5"/>
  <path fill="#FFE37B" d="M13.5,7.6c-0.3-0.4-0.9-0.7-1.4-0.8C11.5,6.8,11,7,10.6,7.3l-3.7,3.2c-0.1,0.1-0.2,0.1-0.3,0L5.2,9.4
	c-0.8-0.6-1.9-0.6-2.6,0l-1.9,1.7v0.6c0,0.5,0.2,1,0.5,1.3c0,0,0,0,0,0l2.6-2.3c0.1-0.1,0.2-0.1,0.3,0l1.3,1.1
	c0.8,0.6,1.9,0.6,2.6,0l3.7-3.2c0.1-0.1,0.1-0.1,0.2-0.1c0,0,0.1,0,0.2,0.1l3,3.8c0.1,0.1,0.1,0.1,0.2,0.2c0.1-0.3,0.2-0.6,0.2-0.9
	v-1.6L13.5,7.6z"/>
  <path fill="#FFE37B" d="M2.8,5.6c0,0.7,0.5,1.2,1.2,1.2c0.7,0,1.2-0.5,1.2-1.2c0,0,0,0,0,0c0-0.7-0.5-1.2-1.2-1.2
	C3.3,4.4,2.8,4.9,2.8,5.6z"/>
</svg>
