<svg xmlns="http://www.w3.org/2000/svg" viewBox="0 0 16 16" width="16" height="16">
<path fill="#AFB1B3" d="M7,14l-1.4-0.4c-0.1,0-0.2-0.2-0.2-0.3l3.2-11C8.7,2.1,8.8,2,9,2l1.4,0.4c0.1,0,0.2,0.2,0.2,0.3l-3.2,11
	C7.3,13.9,7.2,14,7,14z M4.4,11.4l1-1.1c0.1-0.1,0.1-0.3,0-0.4L3.2,8l2.1-1.9c0.1-0.1,0.1-0.3,0-0.4l-1-1.1C4.3,4.5,4.1,4.5,4,4.6
	L0.6,7.8c-0.1,0.1-0.1,0.3,0,0.4L4,11.4C4.1,11.5,4.3,11.5,4.4,11.4z M12,11.4l3.4-3.2c0.1-0.1,0.1-0.3,0-0.4L12,4.6
	c-0.1-0.1-0.3-0.1-0.4,0l-1,1.1c-0.1,0.1-0.1,0.3,0,0.4L12.8,8l-2.1,1.9c-0.1,0.1-0.1,0.3,0,0.4l1,1.1C11.7,11.5,11.9,11.5,12,11.4z
	"/>
</svg>
