<svg xmlns="http://www.w3.org/2000/svg" viewBox="0 0 32 32" width="32" height="32">
    <path fill="#EAEAEA"
          d="M6.3,0.5c-1.4,0-2.5,1.1-2.5,2.4V29c0,1.4,1.1,2.5,2.5,2.5h22.1c1.4,0,2.5-1.1,2.5-2.5V10.3l-9.1-9.8H6.3z"
    />
    <path fill="#434854" d="M21.7,0.5v7.7c0,1.1,0.8,1.9,1.9,1.9H31L21.7,0.5z"/>
    <path opacity="0.1" d="M23.1,10.2l7.7,7.7v-7.7H23.1z"/>
    <path fill="#6BC2E8"
          d="M22.3,25.6c0,0.5-0.4,1-1,1H2c-0.5,0-1-0.4-1-1V14.9c0-0.5,0.4-1,1-1h19.4c0.5,0,1,0.4,1,1V25.6z"/>
    <path fill="#FFFFFF" d="M10.9,16.8H9.5C9.3,16.8,9,17,9,17.2v5.7c0,0.3,0.2,0.5,0.5,0.5c0.3,0,0.5-0.2,0.5-0.5v-2.4h0.9
	c1,0,1.9-0.8,1.9-1.9C12.8,17.6,12,16.8,10.9,16.8z M10.9,19.6H10v-1.9h0.9c0.5,0,0.9,0.4,0.9,0.9C11.9,19.2,11.5,19.6,10.9,19.6z
	 M18.5,20.6h-2.4c-0.3,0-0.5,0.2-0.5,0.5s0.2,0.5,0.5,0.5h1.4c0,0.5-0.4,0.9-0.9,0.9h-0.9c-0.5,0-0.9-0.4-0.9-0.9v-2.8
	c0-0.5,0.4-0.9,0.9-0.9h0.9c0.5,0,0.9,0.4,0.9,0.9c0,0.3,0.2,0.5,0.5,0.5s0.5-0.2,0.5-0.5c0-1-0.8-1.9-1.9-1.9h-0.9
	c-1,0-1.9,0.8-1.9,1.9v2.8c0,1,0.8,1.9,1.9,1.9h0.9c1,0,1.9-0.8,1.9-1.9c0.3,0,0.5-0.2,0.5-0.5S18.8,20.6,18.5,20.6z M7.6,16.8
	c-0.3,0-0.5,0.2-0.5,0.5v4.3c0,0.5-0.4,0.9-0.9,0.9S5.2,22,5.2,21.5V21c0-0.3-0.2-0.5-0.5-0.5S4.3,20.8,4.3,21v0.5
	c0,1,0.8,1.9,1.9,1.9s1.9-0.8,1.9-1.9v-4.3C8.1,17,7.9,16.8,7.6,16.8z"/>
</svg>
