<svg xmlns="http://www.w3.org/2000/svg" viewBox="0 0 20 20" width="20" height="20">
    <path fill="#8D59EF" d="M18,0.7H2C1.4,0.7,0.7,1.4,0.7,2V18c0,0.8,0.6,1.3,1.3,1.3H18c0.8,0,1.3-0.5,1.3-1.3V2
	C19.2,1.4,18.7,0.7,18,0.7z"/>
    <g>
        <path fill="#FFFFFF" d="M4.8,3.9l0.1-0.5c0.4,0,0.8,0,1.1,0c0.3,0,0.6,0,0.8,0c0.2,0,0.3,0,0.5,0c0.1,0,0.3,0,0.5,0l4.8,7.9
		c0.2,0.3,0.4,0.7,0.6,1l0.2-1.4l0.9-4.9c0.1-0.3,0.1-0.6,0.2-0.8c0-0.3,0.1-0.5,0.1-0.7c0-0.1,0-0.2-0.2-0.3L13.3,4l0.1-0.5
		c0.4,0,0.8,0,1.2,0c0.3,0,0.6,0,0.9,0c0.3,0,0.6,0,0.9,0c0.3,0,0.7,0,1.1,0l0,0.5l-1.3,0.4c-0.1,0-0.2,0.2-0.3,0.3
		c0,0.2-0.1,0.4-0.2,0.7c-0.1,0.3-0.1,0.5-0.2,0.9l-2,10.3l-1,0.1L7.4,8.2c-0.2-0.3-0.3-0.6-0.6-1c0,0.2-0.1,0.5-0.1,0.7
		c0,0.2-0.1,0.4-0.1,0.6l-0.9,5.1c-0.1,0.4-0.1,0.7-0.2,1c-0.1,0.3-0.1,0.6-0.1,0.8c0,0.2,0,0.3,0.2,0.3L6.7,16l-0.1,0.5
		c-0.8,0-1.5,0-2,0c-0.5,0-1.2,0-2.1,0l0-0.5l1.3-0.3c0.2,0,0.3-0.1,0.3-0.3c0.1-0.3,0.1-0.5,0.2-0.8s0.1-0.6,0.2-1l1.4-7.4
		C5.9,5.8,6,5.5,6,5.3c0-0.3,0.1-0.5,0.1-0.7c0-0.2,0-0.3-0.2-0.3L4.8,3.9z"/>
    </g>
</svg>
