<svg xmlns="http://www.w3.org/2000/svg" viewBox="0 0 16 16" width="16" height="16">
    <path fill="#F2F2F2"
          d="M14.5,0.5H1.5c-0.5,0-1,0.5-1,1v12.9c0,0.6,0.5,1,1,1h12.9c0.6,0,1-0.4,1-1V1.5C15.5,1,15.1,0.5,14.5,0.5z"
    />
    <g>
        <path fill="#6E6E6E" d="M3.8,3.1l0.1-0.4c0.4,0,0.7,0,0.9,0s0.5,0,0.7,0c0.1,0,0.2,0,0.4,0s0.2,0,0.4,0l3.9,6.4
		c0.1,0.3,0.3,0.5,0.5,0.8l0.2-1.1l0.8-4c0.1-0.2,0.1-0.5,0.1-0.7c0-0.2,0.1-0.4,0.1-0.6c0-0.1,0-0.2-0.2-0.2l-0.9-0.3l0.1-0.4
		c0.3,0,0.7,0,0.9,0s0.5,0,0.7,0c0.2,0,0.5,0,0.8,0c0.3,0,0.6,0,0.9,0l0,0.4L13,3.4c-0.1,0-0.2,0.1-0.2,0.2c0,0.2-0.1,0.4-0.1,0.6
		c0,0.2-0.1,0.4-0.1,0.7l-1.6,8.3l-0.8,0.1L5.9,6.5C5.8,6.3,5.6,6,5.5,5.7c0,0.2-0.1,0.4-0.1,0.6S5.3,6.6,5.3,6.7l-0.8,4.1
		c-0.1,0.3-0.1,0.6-0.1,0.8c0,0.2-0.1,0.5-0.1,0.6c0,0.1,0,0.2,0.1,0.3l0.9,0.3l-0.1,0.4c-0.7,0-1.2,0-1.6,0c-0.4,0-1,0-1.7,0l0-0.4
		L3,12.6c0.1,0,0.2-0.1,0.2-0.2c0-0.2,0.1-0.4,0.1-0.7c0.1-0.2,0.1-0.5,0.2-0.8l1.1-6c0-0.3,0.1-0.5,0.1-0.7c0-0.2,0.1-0.4,0.1-0.6
		c0-0.1,0-0.2-0.1-0.2L3.8,3.1z"/>
    </g>
</svg>
