<svg xmlns="http://www.w3.org/2000/svg"
     viewBox="0 0 16 16" width="16" height="16">
    <path fill="#3C3F41" d="M14.2,0.8H1.8c-0.5,0-1,0.5-1,1v12.4c0,0.6,0.5,1,1,1h12.4c0.6,0,1-0.4,1-1V1.8C15.2,1.3,14.8,0.8,14.2,0.8z
	"/>
    <path fill="#AFB1B3" d="M4,9.8c-0.1,0.1-0.2,0.3-0.3,0.4L3,12.6l0,0c-0.1,0.1,0,0.3,0.1,0.3C3.2,13,3.3,13,3.4,13l0,0l2.3-0.7l0,0
	c0.3,0.1,0.4-0.1,0.5-0.1l5.1-5.2L9.2,4.7L4,9.8z M12.8,5.5c0.3-0.3,0.3-1.2-0.2-1.7l-0.2-0.2l-0.2-0.2c-0.5-0.5-1.3-0.5-1.7-0.1
	L10,3.9l2.2,2.2L12.8,5.5z"/>
</svg>
