<svg xmlns="http://www.w3.org/2000/svg" viewBox="0 0 13 13" width="13" height="13" >
<path fill="#6E6E6E" d="M6.7,1.6L9.1,4L3.5,9.5L1.2,7.2L6.7,1.6z M9.8,0.9c0.7,0.7,0.7,1.7,0,2.4c0,0,0,0,0,0L9.5,3.6L7.1,1.2l0.3-0.3
	C8.1,0.3,9.1,0.3,9.8,0.9L9.8,0.9z M0.4,9.7l0.3-2.1L3.1,10L1,10.3c-0.3,0-0.5-0.1-0.5-0.4C0.4,9.8,0.4,9.7,0.4,9.7z"/>
<path fill="#6E6E6E" d="M1,11.4h11c0.4,0,0.6,0.2,0.6,0.6v0c0,0.4-0.2,0.6-0.6,0.6H1c-0.4,0-0.6-0.2-0.6-0.6v0
	C0.4,11.6,0.6,11.4,1,11.4z"/>
<path fill="#6E6E6E" d="M6.2,9.1H12c0.4,0,0.6,0.2,0.6,0.6v0c0,0.4-0.2,0.6-0.6,0.6H6.2c-0.4,0-0.6-0.2-0.6-0.6v0
	C5.6,9.3,5.8,9.1,6.2,9.1z"/>
</svg>
