<svg xmlns="http://www.w3.org/2000/svg" viewBox="0 0 16 16" width="16" height="16">
    <path fill="#AFB1B3" d="M10.3,2.7H8.5V1.9c0-0.5-0.4-0.9-1-0.9H5.7c-0.5,0-1,0.4-1,0.9v0.9H2.9v2h7.5L10.3,2.7L10.3,2.7z M7.5,2.7
	H5.7V1.9l0,0h1.9l0,0C7.5,1.9,7.5,2.7,7.5,2.7z M12.2,6.1v-3c0-0.2-0.2-0.4-0.5-0.4h-0.9v0.9h0.5v2.5H5.9v6.8h-4V3.6h0.5V2.7H1.5
	C1.2,2.7,1,2.9,1,3.2v10.2c0,0.2,0.2,0.4,0.5,0.4H6V15h6.4l2.7-2.4V6.1C15,6.1,12.2,6.1,12.2,6.1z M12.3,13.8v-1.1h1.4L12.3,13.8z
	 M14.1,11.7h-2.7v2.4H6.9V7h7.2V11.7z"/>
    <path fill="#AFB1B3" d="M8,8h5v1H8V8z M8,10h3v1H8V10z M8,12h2v1H8V12z"/>
</svg>
