<svg xmlns="http://www.w3.org/2000/svg" viewBox="0 0 32 32" width="32" height="32">
    <path fill="#EAEAEA"
          d="M6.3,0.5c-1.4,0-2.5,1.1-2.5,2.4V29c0,1.4,1.1,2.5,2.5,2.5h22.1c1.4,0,2.5-1.1,2.5-2.5V10.3l-9.1-9.8H6.3z"
    />
    <path fill="#434854" d="M21.7,0.5v7.7c0,1.1,0.8,1.9,1.9,1.9H31L21.7,0.5z"/>
    <path opacity="0.1" d="M23.1,10.2l7.7,7.7v-7.7H23.1z"/>
    <path fill="#45825E"
          d="M22.3,25.6c0,0.5-0.4,1-1,1H2c-0.5,0-1-0.4-1-1V14.9c0-0.5,0.4-1,1-1h19.4c0.5,0,1,0.4,1,1V25.6z"/>
    <path fill="#FFFFFF" d="M5.7,17.4H4.3c-0.3,0-0.5,0.2-0.5,0.5v5.7c0,0.3,0.2,0.5,0.5,0.5c0.3,0,0.5-0.2,0.5-0.5v-2.4h0.9
	c1,0,1.9-0.8,1.9-1.9S6.8,17.4,5.7,17.4z M5.7,20.3H4.8v-1.9h0.9c0.5,0,0.9,0.4,0.9,0.9S6.2,20.3,5.7,20.3z M19,21.2h-2.4
	c-0.3,0-0.5,0.2-0.5,0.5s0.2,0.5,0.5,0.5h1.4c0,0.5-0.4,0.9-0.9,0.9h-0.9c-0.5,0-0.9-0.4-0.9-0.9v-2.8c0-0.5,0.4-0.9,0.9-0.9h0.9
	c0.5,0,0.9,0.4,0.9,0.9c0,0.3,0.2,0.5,0.5,0.5s0.5-0.2,0.5-0.5c0-1-0.8-1.9-1.9-1.9h-0.9c-1,0-1.9,0.8-1.9,1.9v2.8
	c0,1,0.8,1.9,1.9,1.9h0.9c1,0,1.9-0.8,1.9-1.9c0.3,0,0.5-0.2,0.5-0.5S19.3,21.2,19,21.2z M12.8,17.4c-0.3,0-0.5,0.2-0.5,0.5V22
	l-2.9-4.3c0,0,0,0-0.1-0.1l-0.1,0H8.8l-0.1,0.1v0.2c0,0,0,0.1,0,0.1v5.7c0,0.3,0.2,0.5,0.5,0.5s0.5-0.2,0.5-0.5v-4.1l2.8,4.2
	c0,0.3,0.3,0.5,0.5,0.4s0.5-0.3,0.4-0.5l0,0v-5.7c0-0.3-0.2-0.5-0.5-0.5C13,17.4,12.9,17.4,12.8,17.4z"/>
</svg>
