<svg xmlns="http://www.w3.org/2000/svg" viewBox="0 0 16 16" width="16" height="16">
    <path fill="#BAD4FF" d="M12.9,15H5.3c-1.2,0-2.1-0.9-2.1-2.1V5.3c0-1.2,0.9-2.1,2.1-2.1h7.6c1.2,0,2.1,0.9,2.1,2.1v7.6
	C15,14,14.1,15,12.9,15z"/>
    <path fill="#0081FF" d="M14.1,7.1c-0.3,0-0.4,0.2-0.4,0.5v4.7c0,0.8-0.6,1.5-1.3,1.5H3.6c-0.7,0-1.3-0.7-1.3-1.5V3.8
	c0-0.8,0.6-1.5,1.3-1.5h4.9C8.8,2.3,9,2.2,9,1.9S8.8,1.5,8.5,1.5H3.6c-1.2,0-2.1,1-2.1,2.3v8.4c0,1.3,0.9,2.3,2.1,2.3h8.8
	c1.2,0,2.1-1,2.1-2.3V7.5C14.5,7.3,14.3,7.1,14.1,7.1z"/>
    <path fill="#0081FF" d="M6.7,6.9l0,2c0,0.2,0.2,0.4,0.4,0.4l2,0h0c0.1,0,0.2-0.1,0.3-0.1l4.9-4.9c0.2-0.2,0.2-0.5,0-0.7l-2-2
	c-0.2-0.2-0.5-0.2-0.7,0L6.8,6.6C6.7,6.6,6.7,6.8,6.7,6.9z M12,2.3L13.7,4L9,8.6L7.5,8.5L7.4,7C7.4,7,12,2.3,12,2.3z"/>
</svg>
