<svg xmlns="http://www.w3.org/2000/svg" viewBox="0 0 32 32" width="32" height="32">
    <path fill="#EAEAEA"
          d="M6.3,0.5c-1.4,0-2.5,1.1-2.5,2.4V29c0,1.4,1.1,2.5,2.5,2.5h22.1c1.4,0,2.5-1.1,2.5-2.5V10.3l-9.1-9.8H6.3z"
    />
    <path fill="#434854" d="M21.7,0.5v7.7c0,1.1,0.8,1.9,1.9,1.9H31L21.7,0.5z"/>
    <path opacity="0.1" d="M23.1,10.2l7.7,7.7v-7.7H23.1z"/>
    <path fill="#EA8686"
          d="M22.3,25.6c0,0.5-0.4,1-1,1H2c-0.5,0-1-0.4-1-1V14.9c0-0.5,0.4-1,1-1h19.4c0.5,0,1,0.4,1,1V25.6z"/>
    <g>
        <path fill="#F4F4F4" d="M6.4,22.6c-0.2,0.1-0.3,0.2-0.5,0.2c-0.2,0-0.4-0.1-0.5-0.2c-0.2-0.1-0.2-0.3-0.2-0.5
		c0-0.2,0.1-0.4,0.2-0.5c0.2-0.1,0.3-0.2,0.5-0.2c0.2,0,0.4,0.1,0.5,0.2c0.2,0.1,0.2,0.3,0.2,0.5C6.7,22.3,6.6,22.5,6.4,22.6
		L6.4,22.6z"/>
        <path fill="#F4F4F4" d="M7.4,19.7c-0.1,0.1-0.3,0.2-0.7,0.5c-0.1,0.1-0.2,0.1-0.2,0.2c0,0,0,0.1,0,0.2c0,0.2,0,0.3-0.1,0.3
		C6.2,21,6.1,21,5.9,21c-0.1,0-0.3,0-0.3-0.1c-0.1-0.1-0.2-0.2-0.2-0.4v-0.3c0-0.3,0.1-0.5,0.3-0.6c0.2-0.1,0.4-0.2,0.7-0.3
		c0.2-0.1,0.3-0.3,0.3-0.4c0-0.4-0.3-0.5-0.8-0.5c-0.2,0-0.4,0.1-0.6,0.2c-0.1,0.1-0.2,0.2-0.3,0.4c-0.1,0.2-0.3,0.3-0.5,0.3
		c-0.1,0-0.3,0-0.3-0.1C4.1,19,4,18.8,4,18.7c0-0.2,0.1-0.5,0.4-0.8c0.4-0.4,0.9-0.6,1.5-0.6c0.5,0,1,0.1,1.3,0.4
		c0.3,0.3,0.5,0.6,0.5,1C7.7,19.2,7.6,19.5,7.4,19.7z"/>
        <path fill="#F4F4F4" d="M12.5,22.6c-0.2,0.1-0.3,0.2-0.5,0.2c-0.2,0-0.4-0.1-0.5-0.2c-0.2-0.1-0.2-0.3-0.2-0.5
		c0-0.2,0.1-0.4,0.2-0.5c0.2-0.1,0.3-0.2,0.5-0.2c0.2,0,0.4,0.1,0.5,0.2c0.2,0.1,0.2,0.3,0.2,0.5C12.7,22.3,12.6,22.5,12.5,22.6z"/>
        <path fill="#F4F4F4" d="M13.4,19.7c-0.1,0.1-0.3,0.2-0.7,0.5c-0.1,0.1-0.2,0.1-0.2,0.2c0,0,0,0.1,0,0.2c0,0.2,0,0.3-0.1,0.3
		C12.2,21,12.1,21,11.9,21c-0.1,0-0.3,0-0.3-0.1c-0.1-0.1-0.2-0.2-0.2-0.4v-0.3c0-0.3,0.1-0.5,0.3-0.6c0.2-0.1,0.4-0.2,0.7-0.3
		c0.2-0.1,0.3-0.3,0.3-0.4c0-0.4-0.3-0.5-0.8-0.5c-0.2,0-0.4,0.1-0.6,0.2c-0.1,0.1-0.2,0.2-0.3,0.4c-0.1,0.2-0.3,0.3-0.5,0.3
		c-0.1,0-0.3,0-0.3-0.1c-0.1-0.1-0.1-0.2-0.1-0.4c0-0.2,0.1-0.5,0.4-0.8c0.4-0.4,0.9-0.6,1.5-0.6c0.5,0,1,0.1,1.3,0.4
		c0.3,0.3,0.5,0.6,0.5,1C13.8,19.2,13.6,19.5,13.4,19.7z"/>
        <path fill="#F4F4F4" d="M18.5,22.6c-0.2,0.1-0.3,0.2-0.5,0.2c-0.2,0-0.4-0.1-0.5-0.2c-0.2-0.1-0.2-0.3-0.2-0.5
		c0-0.2,0.1-0.4,0.2-0.5c0.2-0.1,0.3-0.2,0.5-0.2c0.2,0,0.4,0.1,0.5,0.2c0.2,0.1,0.2,0.3,0.2,0.5C18.7,22.3,18.6,22.5,18.5,22.6z"/>
        <path fill="#F4F4F4" d="M19.4,19.7c-0.1,0.1-0.3,0.2-0.7,0.5c-0.1,0.1-0.2,0.1-0.2,0.2c0,0,0,0.1,0,0.2c0,0.2,0,0.3-0.1,0.3
		C18.2,21,18.1,21,17.9,21c-0.1,0-0.3,0-0.3-0.1c-0.1-0.1-0.2-0.2-0.2-0.4v-0.3c0-0.3,0.1-0.5,0.3-0.6c0.2-0.1,0.4-0.2,0.7-0.3
		c0.2-0.1,0.3-0.3,0.3-0.4c0-0.4-0.3-0.5-0.8-0.5c-0.2,0-0.4,0.1-0.6,0.2c-0.1,0.1-0.2,0.2-0.3,0.4c-0.1,0.2-0.3,0.3-0.5,0.3
		c-0.1,0-0.3,0-0.3-0.1c-0.1-0.1-0.1-0.2-0.1-0.4c0-0.2,0.1-0.5,0.4-0.8c0.4-0.4,0.9-0.6,1.5-0.6c0.5,0,1,0.1,1.3,0.4
		c0.3,0.3,0.5,0.6,0.5,1C19.8,19.2,19.6,19.5,19.4,19.7z"/>
    </g>
</svg>
