<svg xmlns="http://www.w3.org/2000/svg" viewBox="0 0 16 16" width="16" height="16">
    <path fill="#6D9FE5" d="M0.5,0.5h11.7v3.2h3.2v11.7H0.5V0.5z"/>
    <path fill="#4185F4" d="M2.7,2.7h7.5v1.1H2.7L2.7,2.7z"/>
    <path fill="#FFFFFF" d="M2.7,5.9h8.5v1.1H2.7L2.7,5.9z"/>
    <path fill="#FFFFFF" d="M2.7,9.1h8.5v1.1H2.7L2.7,9.1z"/>
    <path fill="#FFFFFF" d="M2.7,12.3h8.5v1.1H2.7L2.7,12.3z"/>
    <path fill="#FFFFFF" d="M12.3,5.9h1.1v1.1h-1.1V5.9z M12.3,9.1h1.1v1.1h-1.1V9.1z M12.3,12.3h1.1v1.1h-1.1V12.3z"/>
    <path fill="#4691EE" d="M12.3,3.7V0.5l3.2,3.2H12.3z"/>
</svg>